<svg width="20" height="20" viewBox="0 0 20 20" fill="none" xmlns="http://www.w3.org/2000/svg">
<path d="M14.1916 4.99984C15.0916 4.99984 15.8333 5.73317 15.8333 6.6665V15.8332C15.8333 16.7748 15.0916 17.4998 14.1916 17.4998C14.1916 17.9832 13.8 18.3332 13.3333 18.3332C12.9166 18.3332 12.5 17.9832 12.5 17.4998H7.49996C7.49996 17.9832 7.08329 18.3332 6.66663 18.3332C6.19996 18.3332 5.80829 17.9832 5.80829 17.4998C4.90829 17.4998 4.16663 16.7748 4.16663 15.8332V6.6665C4.16663 5.73317 4.90829 4.99984 5.80829 4.99984H7.49996V2.49984C7.49996 2.0165 7.88329 1.6665 8.33329 1.6665H11.6666C12.1166 1.6665 12.5 2.0165 12.5 2.49984V4.99984H14.1916ZM11.25 4.99984V2.9165H8.74996V4.99984H11.25ZM6.66663 7.49984V14.9998H7.91663V7.49984H6.66663ZM12.0833 7.49984V14.9998H13.3333V7.49984H12.0833ZM9.37496 7.49984V14.9998H10.625V7.49984H9.37496Z" fill="black"/>
</svg>
