<svg width="24" height="24" viewBox="0 0 24 24" fill="none" xmlns="http://www.w3.org/2000/svg">
<path d="M16.2 3.5C15.2 2.5 13.9 2 12.7 2C11.5 2 10.1 2.5 9.20002 3.5L3.40002 9.1C1.40002 11.1 1.40002 14.2 3.40002 16.2C5.40002 18.2 8.50002 18.2 10.5 16.2L16.2 10.5C18.1 8.6 18.1 5.4 16.2 3.5ZM14.8 9.1L12 11.9L8.40002 8.4L4.00002 12.8C4.00002 12 4.20002 11.1 4.90002 10.5L10.6 4.8C11.1 4.3 11.9 4 12.6 4C13.3 4 14.1 4.3 14.7 4.8C15.9 6.1 15.9 7.9 14.8 9.1ZM19.6 7.1C19.6 7.9 19.4 8.6 19.2 9.4C20.2 10.6 20.2 12.4 19.1 13.5L16.3 16.3L14.8 14.8L12 17.6C10.7 18.9 8.90002 19.6 7.20002 19.6C7.40002 19.9 7.60002 20.2 7.90002 20.5C9.90002 22.5 13 22.5 15 20.5L20.7 14.8C22.7 12.8 22.7 9.7 20.7 7.7C20.2 7.5 19.9 7.3 19.6 7.1Z" fill="black"/>
</svg>
