<svg width="24" height="24" viewBox="0 0 24 24" fill="none" xmlns="http://www.w3.org/2000/svg">
<path d="M17.8601 1.5L12.9101 6.43L15.0301 8.55L16.0901 7.5L15.0301 6.43L17.8601 3.6L18.9201 4.66L20.0001 3.6M21.4001 3.6L15.5601 9.44L13.4301 10.15L3.00006 20.57L4.43006 22L10.0801 16.33L14.3301 20.57L18.5701 16.33L14.3301 12.09L14.5001 11.9L16.6301 11.19L21.4001 6.43C22.1801 5.65 22.1801 4.38 21.4001 3.6ZM6.55006 4.31L2.31006 8.55L7.26006 13.5L11.5001 9.26M18.2201 18.1L16.0901 20.22L17.5001 21.63L19.6301 19.5L18.2201 18.1Z" fill="black"/>
</svg>
