<svg width="20" height="20" viewBox="0 0 20 20" fill="none" xmlns="http://www.w3.org/2000/svg">
<path d="M9.99996 2.5C10.884 2.5 11.7319 2.85119 12.357 3.47631C12.9821 4.10143 13.3333 4.94928 13.3333 5.83333C13.3333 6.44167 13.175 7.00833 12.8833 7.5H15C15.7916 7.5 16.4583 8.05833 16.625 8.8C18.3 15.475 18.3333 15.65 18.3333 15.8333C18.3333 16.2754 18.1577 16.6993 17.8451 17.0118C17.5326 17.3244 17.1087 17.5 16.6666 17.5H3.33329C2.89127 17.5 2.46734 17.3244 2.15478 17.0118C1.84222 16.6993 1.66663 16.2754 1.66663 15.8333C1.66663 15.65 1.69996 15.475 3.37496 8.8C3.54163 8.05833 4.20829 7.5 4.99996 7.5H7.11663C6.82496 7.00833 6.66663 6.44167 6.66663 5.83333C6.66663 4.94928 7.01782 4.10143 7.64294 3.47631C8.26806 2.85119 9.1159 2.5 9.99996 2.5ZM9.99996 4.16667C9.55793 4.16667 9.13401 4.34226 8.82145 4.65482C8.50889 4.96738 8.33329 5.39131 8.33329 5.83333C8.33329 6.27536 8.50889 6.69928 8.82145 7.01184C9.13401 7.3244 9.55793 7.5 9.99996 7.5C10.442 7.5 10.8659 7.3244 11.1785 7.01184C11.491 6.69928 11.6666 6.27536 11.6666 5.83333C11.6666 5.39131 11.491 4.96738 11.1785 4.65482C10.8659 4.34226 10.442 4.16667 9.99996 4.16667Z" fill="black"/>
</svg>
